<?xml version="1.0" standalone="no"?>
<!DOCTYPE svg PUBLIC "-//W3C//DTD SVG 20010904//EN"
 "http://www.w3.org/TR/2001/REC-SVG-20010904/DTD/svg10.dtd">
<svg version="1.0" xmlns="http://www.w3.org/2000/svg"
 width="440.000000pt" height="440.000000pt" viewBox="0 0 440.000000 440.000000"
 preserveAspectRatio="xMidYMid meet">

<g transform="translate(0.000000,440.000000) scale(0.100000,-0.100000)"
fill="#000000" stroke="none">
<path d="M2100 4373 c-190 -9 -418 -52 -605 -116 -95 -33 -354 -148 -384 -171
-8 -6 -23 -10 -33 -8 -12 2 -21 -3 -24 -15 -5 -17 -155 -124 -160 -113 -1 3
-12 -7 -24 -22 -12 -16 -29 -28 -38 -28 -10 0 -22 -10 -27 -22 -6 -12 -21 -25
-35 -29 -14 -4 -21 -7 -16 -8 16 -2 -17 -31 -35 -31 -12 0 -19 -7 -19 -20 0
-14 -6 -20 -17 -18 -12 2 -18 -3 -16 -15 0 -12 -4 -16 -13 -13 -8 3 -13 0 -11
-7 1 -7 -3 -11 -10 -10 -14 3 -83 -75 -83 -94 0 -8 -4 -12 -9 -9 -12 8 -76
-76 -73 -95 2 -10 -2 -20 -8 -24 -5 -3 -10 -1 -10 6 0 6 -9 0 -20 -14 -11 -14
-20 -30 -20 -35 0 -6 -4 -12 -8 -14 -4 -1 -18 -17 -30 -35 -21 -29 -21 -32 -5
-36 15 -4 14 -6 -5 -12 -14 -5 -21 -13 -18 -22 4 -8 -4 -17 -18 -23 -25 -9
-42 -42 -37 -74 1 -10 -2 -15 -7 -12 -5 3 -15 -1 -21 -8 -8 -9 -8 -16 -2 -20
15 -10 2 -36 -15 -29 -8 3 -14 -1 -14 -11 0 -9 4 -16 10 -16 5 0 7 -7 3 -16
-4 -12 -8 -12 -13 -3 -11 16 -32 -24 -24 -45 8 -22 -35 -128 -49 -119 -6 4 -8
-2 -4 -17 3 -12 1 -34 -5 -49 -6 -14 -14 -39 -18 -56 -5 -16 -15 -55 -23 -85
-83 -304 -87 -694 -12 -1033 142 -639 604 -1205 1205 -1478 320 -145 547 -193
915 -193 206 0 245 3 370 27 170 32 159 29 271 65 50 16 99 27 108 26 10 -1
15 0 12 4 -10 9 74 44 90 38 8 -3 13 -2 10 3 -5 7 6 14 71 44 11 5 26 6 33 2
18 -11 71 15 68 34 -2 11 4 16 19 15 13 0 25 7 28 16 6 20 52 43 67 34 6 -4 8
-2 4 4 -9 15 103 88 129 84 16 -2 17 -1 5 7 -13 9 -13 11 2 11 10 0 22 9 28
20 6 11 21 20 34 20 26 0 48 21 44 41 -2 8 8 15 22 17 14 2 30 8 35 14 7 8 4
9 -9 4 -16 -6 -17 -4 -6 9 7 9 18 14 24 12 7 -3 23 4 36 15 19 16 21 21 10 28
-11 7 -8 11 13 19 18 7 25 15 21 23 -5 7 -2 9 8 5 16 -6 58 30 58 49 0 5 -5 1
-11 -8 -5 -10 -15 -18 -21 -18 -6 0 -3 9 7 20 10 11 26 20 35 20 19 0 64 56
55 70 -3 6 2 10 12 10 19 0 57 52 47 63 -9 9 19 42 36 42 10 0 14 8 13 23 -2
16 2 22 18 22 16 0 19 4 14 20 -3 11 -2 20 2 20 5 0 13 15 18 33 8 24 15 31
30 30 11 -1 14 0 8 3 -7 3 -13 9 -13 14 0 11 63 114 73 118 4 2 7 12 7 22 0
10 11 40 24 67 13 26 32 69 41 95 10 27 21 48 24 48 4 0 7 8 8 18 0 9 8 44 18
77 9 33 22 76 27 95 26 91 58 288 68 412 28 376 -52 775 -227 1120 -114 225
-228 383 -403 558 -434 434 -1015 660 -1630 633z m489 -242 c556 -118 1021
-448 1307 -926 143 -239 244 -559 260 -816 3 -52 7 -110 9 -129 6 -55 -13
-306 -30 -393 -101 -533 -406 -990 -860 -1290 -97 -64 -255 -146 -320 -167
-22 -7 -44 -16 -50 -20 -13 -10 -154 -55 -230 -74 -146 -37 -269 -50 -465 -49
-273 0 -468 35 -695 123 -65 25 -134 57 -157 72 -14 10 -31 18 -36 18 -6 0
-37 15 -71 34 -485 275 -836 753 -951 1298 -32 152 -43 297 -37 477 11 312 78
565 224 841 272 516 777 889 1353 999 155 30 146 29 405 27 203 -3 256 -6 344
-25z m-1509 -65 c0 -3 -4 -8 -10 -11 -5 -3 -10 -1 -10 4 0 6 5 11 10 11 6 0
10 -2 10 -4z m-648 -598 c-7 -7 -12 -8 -12 -2 0 14 12 26 19 19 2 -3 -1 -11
-7 -17z"/>
<path d="M2080 3949 c-170 -9 -304 -35 -480 -96 -165 -56 -480 -232 -480 -268
0 -13 -11 -19 -31 -17 -10 2 -190 -160 -212 -190 -12 -16 -20 -42 -20 -67 0
-23 -4 -39 -10 -38 -6 1 -13 -7 -15 -17 -3 -13 0 -17 10 -14 10 4 14 -3 15
-27 1 -26 -2 -32 -14 -28 -11 4 -14 1 -11 -13 2 -10 10 -18 16 -17 7 2 12 -4
12 -12 0 -21 -28 -19 -34 3 -3 9 -4 53 -2 96 l3 79 -29 -34 c-119 -141 -260
-401 -321 -594 -67 -209 -82 -311 -81 -565 0 -204 3 -236 27 -350 59 -281 162
-513 324 -735 118 -161 351 -374 516 -469 l47 -28 0 24 c0 29 -9 42 -39 58
-17 8 -20 14 -11 20 9 6 8 15 -5 39 -9 18 -15 42 -13 54 3 17 7 12 16 -20 12
-40 36 -64 26 -25 -7 25 38 87 63 87 12 0 25 3 29 7 4 5 0 8 -9 8 -10 0 -17 5
-17 10 0 6 -7 10 -15 10 -8 0 -15 -4 -15 -10 0 -5 -7 -10 -16 -10 -11 0 -14 6
-9 20 4 14 2 20 -9 20 -8 0 -18 -9 -21 -20 -10 -33 -21 -23 -17 15 4 31 2 34
-14 28 -11 -4 -34 -17 -53 -30 -19 -13 -39 -23 -44 -23 -16 0 2 16 59 53 27
18 47 36 45 41 -1 5 3 12 9 16 16 10 25 85 11 102 -6 7 -20 25 -32 41 -12 16
-30 27 -45 27 -14 0 -24 6 -24 14 0 17 25 27 46 19 11 -4 22 1 30 12 13 17 14
15 14 -18 0 -20 4 -37 10 -37 5 0 25 14 45 31 41 36 45 29 10 -17 -14 -18 -25
-35 -25 -37 0 -3 13 -10 30 -17 34 -14 60 -8 60 15 0 13 -7 15 -37 9 -35 -7
-37 -6 -24 9 7 10 21 17 30 17 34 1 51 25 48 69 -4 50 14 72 44 53 27 -17 23
-1 -6 27 -27 25 -33 72 -12 90 10 8 17 7 26 -2 11 -10 11 -8 3 9 -8 15 -7 27
3 47 10 20 11 27 2 28 -7 0 -2 4 11 9 17 7 32 3 69 -20 85 -54 262 -100 385
-100 63 0 69 2 57 16 -8 10 -21 13 -36 9 -13 -3 -37 2 -56 11 -17 10 -48 17
-67 16 -19 -1 -44 5 -55 13 -18 15 -18 16 -2 44 26 44 21 46 -14 6 -23 -26
-39 -35 -63 -35 -75 0 -74 48 3 124 53 53 62 57 90 51 35 -7 38 -22 15 -67
-24 -46 -1 -25 53 48 35 48 53 64 68 62 17 -3 20 -10 18 -43 l-2 -40 17 24
c44 63 61 72 111 60 7 -2 16 2 18 9 3 8 -6 12 -26 12 -25 0 -32 5 -37 26 -5
20 -2 31 14 43 16 12 22 31 26 78 3 33 8 73 12 86 7 30 -2 33 -161 41 -152 8
-174 14 -196 50 -26 43 -25 46 20 46 22 0 43 5 46 10 4 6 11 8 16 4 5 -3 164
-5 354 -4 189 0 392 -2 450 -6 115 -8 115 -7 90 -66 -6 -14 -2 -18 16 -18 24
-1 24 -1 -5 -23 -62 -48 -106 -96 -106 -114 0 -42 100 -163 135 -163 15 0 125
-48 125 -55 0 -6 -40 9 -81 31 -61 31 -38 6 41 -45 87 -56 103 -62 74 -29 -11
12 -2 8 21 -10 51 -40 153 -78 168 -63 6 6 15 11 19 11 10 0 10 -37 0 -44 -10
-6 -8 -94 2 -121 7 -18 6 -18 -12 2 -19 21 -20 21 -25 4 -2 -11 0 -24 6 -30
29 -29 72 4 63 47 -5 23 -3 22 12 -8 22 -45 83 -80 105 -61 12 9 14 19 6 38
-6 15 -6 31 0 41 8 15 10 15 15 2 12 -38 17 -92 7 -86 -6 4 -17 -8 -26 -25 -9
-17 -27 -41 -41 -53 -24 -22 -36 -68 -19 -74 6 -2 17 16 25 40 l14 43 7 -40
c4 -22 5 -45 2 -51 -7 -18 27 -39 58 -36 32 4 38 -8 14 -28 -10 -9 -15 -9 -15
-1 0 6 -7 11 -16 11 -11 0 -14 -6 -9 -21 5 -14 3 -20 -7 -18 -31 4 -48 -2 -59
-22 -8 -15 -8 -24 0 -32 14 -14 14 -30 1 -22 -5 3 -10 2 -10 -4 0 -5 5 -13 10
-16 15 -9 12 -34 -6 -52 -12 -13 -15 -13 -14 -2 1 8 2 33 1 57 -1 38 -4 42
-26 42 -25 0 -48 -28 -43 -52 2 -7 -3 -12 -11 -10 -15 3 -31 -15 -31 -36 0 -8
8 -10 25 -6 20 5 28 0 45 -28 11 -18 20 -27 20 -20 0 7 4 10 10 7 6 -4 4 -18
-6 -37 -9 -18 -11 -27 -4 -23 9 5 10 1 5 -15 -6 -20 -5 -22 16 -17 l24 6 -23
-17 c-13 -9 -41 -33 -62 -54 -21 -20 -49 -40 -62 -44 l-23 -8 25 -8 c18 -5 11
-6 -21 -3 -28 2 -50 0 -58 -8 -6 -6 -26 -12 -44 -14 l-34 -2 3 50 c2 27 8 59
15 72 l11 22 -23 -22 c-18 -17 -22 -32 -20 -69 2 -63 -5 -81 -38 -98 -17 -9
-31 -28 -38 -51 -13 -41 -16 -41 82 -1 l56 23 -23 17 c-17 13 -18 16 -5 12 52
-16 70 -18 64 -9 -4 6 -24 14 -44 18 -36 7 -37 8 -14 16 14 6 45 7 70 3 44 -6
45 -5 26 10 -19 15 -19 16 9 6 37 -13 65 -3 161 58 104 66 177 126 293 237
623 601 727 1579 244 2305 -39 58 -85 122 -104 144 l-34 38 3 -97 c3 -88 2
-96 -14 -93 -15 3 -18 15 -20 78 0 41 3 80 8 87 7 7 6 14 -1 18 -5 3 -10 17
-10 30 0 16 -28 50 -97 115 -93 88 -138 119 -152 104 -3 -4 0 -9 7 -11 6 -3
12 -16 12 -29 0 -14 -4 -22 -10 -19 -5 3 -10 -1 -10 -9 0 -9 5 -16 10 -16 6 0
10 -9 10 -20 0 -11 -4 -20 -10 -20 -5 0 -10 -7 -10 -15 0 -8 4 -15 8 -15 4 0
8 -9 9 -20 1 -11 -2 -20 -8 -20 -5 0 -9 -7 -9 -15 0 -8 4 -15 8 -15 4 0 8 -9
9 -20 1 -11 -2 -20 -8 -20 -5 0 -9 -7 -9 -16 0 -8 5 -12 10 -9 6 3 10 1 10 -5
0 -7 -6 -10 -12 -7 -10 3 -13 40 -14 138 -1 74 -2 148 -3 166 -1 27 -10 38
-64 77 -85 61 -271 156 -389 200 -245 91 -461 120 -768 105z m138 -176 c5 -17
-26 -29 -40 -15 -6 6 -7 15 -3 22 9 14 37 9 43 -7z m49 -245 c9 -10 24 -18 34
-18 29 0 89 59 89 86 0 17 6 24 19 24 29 0 33 -15 11 -40 -23 -27 -27 -87 -7
-114 13 -18 15 -18 48 -1 19 10 54 38 78 64 24 25 41 42 38 36 -16 -32 -57
-187 -59 -225 l-3 -45 -317 -1 -318 -1 0 36 c0 20 -13 79 -30 131 -16 52 -30
98 -30 102 0 4 21 -13 48 -38 59 -58 95 -77 111 -61 17 17 14 114 -4 121 -25
9 -18 38 8 34 12 -2 21 -9 19 -17 -5 -21 68 -91 94 -91 30 0 57 36 78 105 l18
56 30 -63 c16 -35 37 -71 45 -80z m-447 71 c0 -14 -5 -19 -17 -17 -26 5 -29
38 -4 38 15 0 21 -6 21 -21z m790 1 c0 -13 -7 -20 -20 -20 -13 0 -20 7 -20 20
0 13 7 20 20 20 13 0 20 -7 20 -20z m-1493 -70 c-1 -11 -5 -20 -9 -20 -4 0 -8
-7 -8 -15 0 -8 4 -15 8 -15 4 0 8 -9 9 -20 1 -11 -2 -20 -8 -20 -5 0 -9 -7 -9
-15 0 -8 4 -15 8 -15 13 0 12 -38 -2 -43 -9 -4 -12 19 -12 89 0 69 3 94 12 94
7 0 12 -9 11 -20z m353 -140 c-5 -22 -8 -27 -9 -13 -1 21 9 56 14 51 2 -2 0
-19 -5 -38z m-53 -2 c-3 -7 -5 -2 -5 12 0 14 2 19 5 13 2 -7 2 -19 0 -25z
m-96 -25 c13 -16 12 -17 -3 -4 -10 7 -18 15 -18 17 0 8 8 3 21 -13z m-204 -42
c1 -11 -4 -22 -11 -24 -9 -4 -13 4 -12 23 1 30 21 31 23 1z m194 -7 c13 -16
12 -16 -7 -6 -11 6 -27 19 -35 28 -13 16 -12 16 7 6 11 -6 27 -19 35 -28z
m323 -9 c-5 -13 -34 -35 -46 -35 -2 0 -4 9 -4 19 0 11 4 17 8 15 4 -3 16 0 25
5 23 14 23 14 17 -4z m-344 -37 c10 -6 7 -7 -10 -2 -14 3 -32 11 -40 16 -10 6
-7 7 10 2 14 -3 32 -11 40 -16z m-170 0 c0 -4 -4 -8 -9 -8 -6 0 -12 4 -15 8
-3 5 1 9 9 9 8 0 15 -4 15 -9z m503 -15 c-7 -2 -19 -2 -25 0 -7 3 -2 5 12 5
14 0 19 -2 13 -5z m4 -39 c-3 -3 -12 -4 -19 -1 -8 3 -5 6 6 6 11 1 17 -2 13
-5z m-470 -42 c19 -23 20 -28 7 -30 -13 -3 -13 -6 3 -18 17 -13 17 -15 -1 -29
-14 -10 -15 -15 -6 -15 11 0 11 -3 2 -12 -9 -9 -6 -15 16 -25 26 -13 26 -13 2
-8 -14 2 -54 5 -90 6 -36 0 -60 3 -53 5 7 3 9 12 6 20 -3 8 1 14 8 14 9 1 7 6
-6 16 -20 15 -20 15 -1 30 11 8 14 14 8 14 -19 0 -14 28 9 51 26 26 65 19 96
-19z m2188 28 c33 -12 50 -52 26 -62 -14 -6 -14 -7 2 -7 9 -1 17 -6 17 -12 0
-7 -8 -18 -17 -25 -13 -9 -14 -13 -4 -14 7 0 11 -6 8 -14 -3 -8 -1 -17 6 -19
7 -3 -23 -6 -66 -8 -42 -2 -77 -1 -77 4 0 4 7 7 16 7 10 0 14 6 10 15 -3 8 -1
15 4 15 6 0 10 5 10 10 0 6 -5 9 -12 8 -6 -2 -14 5 -16 15 -2 11 3 17 15 18
16 1 17 2 1 6 -10 2 -18 8 -18 12 0 12 23 38 45 49 25 14 19 14 50 2z m-2010
-10 c-11 -5 -29 -8 -40 -8 -16 0 -15 2 5 8 34 11 60 11 35 0z m182 -1 c15 -7
56 -11 90 -10 l62 2 3 -123 c3 -115 4 -123 23 -123 19 0 20 8 23 121 l3 122
35 4 c19 2 37 2 39 -1 10 -9 5 -243 -6 -263 -13 -25 -68 -48 -114 -48 -42 0
-84 36 -86 72 -4 94 -12 128 -30 128 -7 0 -10 -11 -7 -29 2 -17 1 -28 -4 -25
-4 3 -8 16 -8 29 0 23 -17 35 -50 35 -10 0 -22 9 -25 20 -8 27 -45 27 -45 0 0
-19 66 -70 89 -70 16 0 31 -36 31 -75 0 -56 -44 -95 -107 -95 -59 0 -93 26
-93 70 0 28 3 30 35 30 23 0 35 -5 35 -14 0 -7 7 -19 16 -26 12 -11 18 -11 30
2 21 20 8 46 -35 68 -76 39 -94 74 -71 135 12 31 71 59 111 53 19 -3 25 0 22
9 -6 16 -2 16 34 2z m413 -71 c22 -119 25 -120 45 -20 l17 92 43 0 43 0 -34
-132 c-18 -73 -34 -143 -34 -155 0 -21 -3 -22 -47 -17 -27 4 -51 9 -55 13 -10
8 -76 274 -71 284 2 4 21 7 42 7 l38 0 13 -72z m319 40 c13 -39 61 -244 61
-258 0 -5 -18 -10 -39 -10 -36 0 -40 3 -43 28 -2 21 -9 28 -31 30 -23 3 -29
-2 -38 -27 -10 -27 -16 -31 -49 -31 l-38 0 25 103 c13 56 29 123 34 150 l11
47 48 0 c46 0 49 -2 59 -32z m292 3 c23 -28 25 -78 4 -101 -13 -15 -13 -21 -1
-46 8 -16 16 -53 18 -81 5 -57 5 -58 -51 -47 -28 6 -31 10 -31 46 0 22 -5 48
-10 59 -16 28 -40 24 -42 -8 -1 -16 -3 -37 -4 -48 -1 -11 -2 -26 -3 -33 -1 -9
-13 -12 -38 -10 l-38 3 -2 148 -2 149 91 -4 c80 -3 92 -6 109 -27z m178 -50
l26 -75 3 72 3 72 34 0 c27 0 35 -4 35 -17 5 -173 8 -262 11 -277 3 -12 -2
-20 -13 -21 -10 -2 -18 1 -18 5 0 5 -14 10 -32 12 -30 3 -33 7 -57 78 l-26 75
-3 -77 -3 -78 -34 0 -35 0 0 156 0 155 42 -3 42 -3 25 -74z m-1455 60 c4 -5
-3 -7 -14 -4 -23 6 -26 13 -6 13 8 0 17 -4 20 -9z m1792 -141 c42 -173 42
-170 -1 -170 -31 0 -36 4 -41 29 -4 21 -14 31 -32 36 -28 7 -38 0 -44 -30 -2
-16 -12 -21 -44 -23 l-41 -3 33 138 c19 76 36 144 39 151 3 9 20 12 52 10 l46
-3 33 -135z m-1816 120 c-8 -5 -19 -10 -25 -10 -5 0 -3 5 5 10 8 5 20 10 25
10 6 0 3 -5 -5 -10z m45 -10 c-3 -5 -11 -10 -16 -10 -6 0 -7 5 -4 10 3 6 11
10 16 10 6 0 7 -4 4 -10z m-429 -80 c16 -6 39 -26 52 -45 l22 -35 -32 -1 c-30
-1 -31 -2 -8 -8 14 -4 26 -15 28 -24 3 -15 -7 -17 -87 -17 -50 0 -91 4 -91 9
0 12 21 28 45 34 15 4 13 5 -7 6 -33 1 -33 3 -12 46 9 19 25 36 37 38 12 2 22
5 23 6 1 0 14 -4 30 -9z m2767 -2 c52 -27 64 -77 20 -79 -27 -1 -27 -1 5 -10
17 -5 32 -16 32 -24 0 -12 -18 -15 -91 -15 -80 0 -90 2 -87 17 2 9 14 20 28
24 23 6 22 7 -8 8 l-32 1 22 35 c20 30 52 51 81 54 5 1 18 -4 30 -11z m-2481
-83 c-2 -14 -9 -25 -16 -26 -6 0 -25 -2 -41 -4 -41 -6 -90 8 -90 25 0 7 6 15
13 18 7 2 10 -2 6 -11 -3 -9 3 -17 18 -21 38 -10 48 -7 48 13 0 15 8 21 33 24
17 2 33 5 33 5 1 1 -1 -9 -4 -23z m2198 -5 c0 -21 -76 -35 -116 -20 -29 11
-28 33 2 38 15 3 16 1 4 -7 -12 -8 -9 -12 13 -20 37 -14 37 -14 37 8 0 11 6
21 13 24 22 7 47 -5 47 -23z m-2113 3 c5 -15 -42 -36 -66 -30 -11 3 -7 7 12
15 16 7 25 17 21 23 -4 7 1 10 11 7 10 -1 20 -9 22 -15z m2203 7 c21 -13 3
-27 -45 -35 l-40 -6 33 15 c18 9 31 20 27 26 -8 13 5 13 25 0z m-2520 -76 c0
-3 -5 -14 -10 -25 -9 -16 -7 -19 12 -19 13 0 30 -5 38 -10 10 -7 -26 -9 -110
-9 -106 1 -121 2 -98 13 20 8 25 15 18 26 -5 8 -6 18 -4 22 6 9 154 11 154 2z
m2753 -21 c-2 -14 3 -23 12 -23 7 0 17 -4 20 -10 4 -6 -37 -10 -117 -9 -109 1
-119 2 -86 13 29 8 35 15 28 26 -15 25 0 31 73 28 68 -3 72 -4 70 -25z m-1853
-198 l0 -145 -29 -32 c-25 -29 -34 -32 -86 -32 -50 -1 -59 2 -81 27 -23 27
-24 34 -24 173 l0 145 43 -3 42 -3 5 -134 c4 -95 9 -136 17 -139 22 -6 31 39
32 157 1 63 4 118 7 123 3 4 21 8 40 8 l34 0 0 -145z m234 124 c21 -16 26 -29
26 -64 0 -26 -6 -47 -15 -55 -14 -12 -13 -15 5 -35 29 -31 27 -96 -3 -131 -22
-25 -31 -28 -110 -32 l-87 -5 0 172 0 171 79 0 c64 0 83 -4 105 -21z m166 -39
l0 -60 30 0 30 0 0 60 0 60 40 0 40 0 0 -170 0 -170 -40 0 -39 0 -3 68 c-3 65
-4 67 -30 70 -27 3 -27 3 -30 -65 l-3 -68 -40 0 -40 0 -3 168 -2 167 45 0 45
0 0 -60z m355 -17 c9 -43 25 -115 36 -161 10 -46 19 -88 19 -93 0 -6 -19 -9
-42 -7 -39 3 -43 6 -46 31 -3 22 -8 27 -32 27 -23 0 -30 -5 -35 -30 -6 -27
-10 -30 -47 -30 l-41 0 7 43 c7 39 36 174 57 260 10 36 11 37 58 37 l49 0 17
-77z m244 63 c30 -16 51 -53 51 -91 0 -22 -4 -25 -39 -25 -35 0 -39 3 -45 31
-4 22 -11 30 -23 27 -16 -3 -18 -16 -18 -108 0 -98 1 -105 20 -105 15 0 21 8
23 33 2 24 -1 32 -12 32 -11 0 -16 9 -16 30 0 28 2 30 39 30 69 0 71 -2 71
-100 l0 -89 -76 0 c-51 0 -83 5 -99 15 -33 22 -48 89 -43 190 4 83 6 88 36
116 37 32 85 37 131 14z m161 -52 c14 -50 26 -49 36 1 8 44 12 46 62 37 l40
-7 -39 -95 c-32 -79 -38 -107 -38 -168 l-1 -73 -37 7 c-21 4 -41 9 -45 11 -5
2 -8 38 -8 78 0 42 -6 89 -14 107 -39 89 -56 139 -52 146 2 4 22 6 44 4 38 -4
41 -6 52 -48z m-1465 24 c25 -112 65 -300 65 -309 0 -6 -17 -9 -42 -7 -39 3
-43 6 -46 31 -3 22 -8 27 -32 27 -24 0 -29 -5 -34 -35 -7 -33 -9 -35 -46 -35
-45 0 -46 4 -30 73 5 23 19 87 30 142 12 55 24 108 26 118 4 13 16 17 54 17
43 0 50 -3 55 -22z m-241 1 c27 -13 52 -60 42 -84 -9 -24 -69 -20 -81 6 -14
30 -29 29 -33 -1 -2 -21 6 -30 47 -54 52 -31 71 -59 71 -106 0 -69 -45 -110
-120 -110 -54 0 -93 36 -88 83 3 29 6 32 41 35 34 3 37 1 37 -23 0 -22 4 -26
22 -23 13 2 24 11 26 20 3 18 -7 29 -75 78 -40 28 -43 34 -43 76 0 55 12 79
48 98 33 18 72 20 106 5z m1989 -9 c5 -4 22 -70 38 -146 16 -77 32 -151 35
-166 5 -27 4 -28 -34 -28 -41 0 -52 11 -52 51 0 14 -7 19 -29 19 -25 0 -30 -5
-36 -31 -7 -29 -9 -31 -42 -26 -20 4 -38 8 -40 11 -4 4 46 255 63 318 4 13 13
15 47 11 23 -3 46 -9 50 -13z m-2385 1 c8 -5 12 -17 10 -27 -4 -25 -50 -30
-68 -8 -12 14 -12 18 5 30 22 16 34 17 53 5z m2741 -5 c6 -7 8 -21 5 -30 -9
-24 -68 -18 -72 8 -7 32 44 49 67 22z m-2885 -10 c-4 -11 7 -18 38 -27 24 -7
36 -14 26 -16 -46 -11 -115 27 -91 50 12 13 32 7 27 -7z m272 3 c11 -18 -18
-38 -65 -45 -32 -5 -42 -4 -37 4 4 7 14 12 22 12 9 0 25 5 36 11 17 9 18 13 7
20 -11 7 -9 9 8 9 12 0 25 -5 29 -11z m2468 -4 c-5 -11 3 -17 25 -21 17 -4 34
-11 38 -17 7 -12 -61 -1 -90 15 -15 7 -16 12 -6 24 15 19 40 18 33 -1z m271
-5 c0 -16 -55 -39 -95 -39 -18 1 -13 5 20 16 55 19 58 22 40 34 -12 8 -9 9 10
7 14 -2 25 -9 25 -18z m-2140 -493 c0 -88 3 -109 18 -124 13 -14 21 -15 35 -7
14 9 17 30 20 122 2 102 5 113 24 123 15 8 27 8 44 0 21 -9 24 -18 26 -73 6
-147 -5 -194 -48 -223 -43 -28 -175 -12 -193 24 -16 30 -22 109 -15 186 6 65
10 78 28 85 12 4 30 4 41 0 18 -7 20 -16 20 -113z m479 113 c50 -19 21 -63
-42 -64 l-37 -1 -3 -118 c-3 -114 -3 -118 -27 -129 -21 -9 -28 -8 -45 7 -18
16 -20 31 -20 127 0 79 -3 108 -12 109 -7 1 -26 2 -42 3 -28 2 -59 31 -53 50
2 6 14 13 28 17 38 11 225 10 253 -1z m222 -10 c49 -24 58 -40 38 -69 -12 -16
-21 -20 -42 -14 -15 3 -33 13 -41 20 -16 17 -35 12 -39 -11 -3 -11 10 -22 41
-36 125 -55 127 -164 4 -190 -61 -12 -114 3 -141 42 -22 31 -20 47 9 60 21 10
30 8 61 -14 21 -15 44 -24 55 -21 30 8 18 25 -37 55 -108 59 -124 128 -41 178
41 25 80 25 133 0z m259 0 c21 -18 42 -68 65 -160 12 -47 24 -93 26 -102 3
-10 -4 -23 -20 -33 -33 -22 -63 -6 -74 38 -7 28 -13 32 -43 35 -33 3 -37 0
-51 -37 -14 -35 -21 -41 -47 -41 -48 0 -53 23 -22 115 30 89 66 169 86 189 16
15 59 13 80 -4z m166 10 c11 -7 19 -22 20 -38 0 -36 32 -133 43 -135 11 -2 55
109 55 140 1 28 28 43 64 36 39 -8 39 -33 1 -133 -39 -104 -85 -174 -118 -178
-36 -4 -52 10 -81 73 -54 118 -69 216 -37 234 22 13 29 13 53 1z m-915 -293
c4 -4 -7 -7 -25 -7 -19 0 -30 4 -26 10 6 10 40 8 51 -3z m47 -53 c-6 -16 -12
-17 -32 -5 -12 8 -12 11 0 24 17 18 41 4 32 -19z m-43 -319 c0 -9 -6 -12 -15
-9 -8 4 -15 10 -15 15 0 5 7 9 15 9 8 0 15 -7 15 -15z m-127 -55 c9 -11 24
-20 32 -20 9 0 13 -4 10 -10 -9 -15 -55 -12 -52 3 1 7 -8 11 -25 10 -25 -1
-26 -1 -10 17 22 24 24 24 45 0z m-43 -34 c0 -3 -4 -8 -10 -11 -5 -3 -10 -1
-10 4 0 6 5 11 10 11 6 0 10 -2 10 -4z m30 -29 c0 -2 -10 -12 -21 -23 -22 -19
-22 -19 -8 4 12 19 29 30 29 19z m3 -74 c-9 -16 -27 -41 -40 -56 -13 -16 -21
-33 -18 -37 3 -5 0 -12 -6 -16 -8 -5 -9 -3 -4 6 5 9 2 10 -13 6 -18 -6 -20 -3
-16 24 6 32 -6 39 -26 15 -10 -12 -10 -18 0 -30 16 -19 0 -20 -25 -1 -18 13
-18 14 3 43 12 17 18 33 15 37 -4 4 -1 5 7 2 8 -3 26 3 40 14 15 11 41 20 63
20 l37 0 -17 -27z m1437 17 c0 -5 -5 -10 -11 -10 -5 0 -7 5 -4 10 3 6 8 10 11
10 2 0 4 -4 4 -10z m40 -60 c-20 -13 -33 -13 -25 0 3 6 14 10 23 10 15 0 15
-2 2 -10z m-30 -110 c0 -5 -4 -10 -10 -10 -5 0 -10 5 -10 10 0 6 5 10 10 10 6
0 10 -4 10 -10z m-2050 -140 c0 -5 -11 -10 -25 -10 -14 0 -25 5 -25 10 0 6 11
10 25 10 14 0 25 -4 25 -10z m62 -55 c2 -14 -3 -20 -17 -20 -11 0 -25 -3 -30
-7 -6 -4 -17 -3 -25 3 -12 7 -12 9 -1 9 7 0 22 12 33 26 21 26 34 23 40 -11z
m2148 -106 c0 -6 -4 -7 -10 -4 -5 3 -10 11 -10 16 0 6 5 7 10 4 6 -3 10 -11
10 -16z m55 -88 c-3 -6 -11 -11 -17 -11 -6 0 -6 6 2 15 14 17 26 13 15 -4z
m-2121 -12 c14 -11 26 -25 26 -31 0 -7 -10 -2 -22 9 -13 12 -39 26 -58 31
l-35 10 31 1 c18 1 43 -8 58 -20z m1926 -79 c0 -5 -4 -10 -10 -10 -5 0 -10 5
-10 10 0 6 5 10 10 10 6 0 10 -4 10 -10z m146 -21 c10 -16 -17 -19 -43 -5
l-28 16 33 -2 c19 -1 36 -6 38 -9z m-26 -59 c-20 -13 -33 -13 -25 0 3 6 14 10
23 10 15 0 15 -2 2 -10z m-2153 -6 c-3 -3 -12 -4 -19 -1 -8 3 -5 6 6 6 11 1
17 -2 13 -5z m2095 -46 c-8 -31 -17 -28 -15 5 2 50 4 53 12 32 4 -11 6 -28 3
-37z m-1918 -23 c-4 -8 -8 -15 -10 -15 -2 0 -4 7 -4 15 0 8 4 15 10 15 5 0 7
-7 4 -15z"/>
<path d="M1529 3166 c14 -16 51 -28 51 -16 0 4 -14 13 -31 19 -26 9 -29 9 -20
-3z"/>
<path d="M1540 3127 c0 -6 9 -18 20 -25 16 -10 20 -10 20 1 0 6 -9 18 -20 25
-16 10 -20 10 -20 -1z"/>
<path d="M2186 3075 c-12 -64 -12 -69 7 -73 19 -4 21 25 7 83 l-7 30 -7 -40z"/>
<path d="M2429 3135 c-3 -3 -4 -18 -1 -35 5 -33 38 -43 49 -14 11 28 -29 68
-48 49z"/>
<path d="M2963 3050 c-11 -63 -9 -70 17 -70 16 0 18 5 13 38 -14 85 -19 91
-30 32z"/>
<path d="M1950 2734 c0 -23 4 -34 12 -32 33 11 36 68 3 68 -11 0 -15 -10 -15
-36z"/>
<path d="M1946 2624 c-3 -9 -6 -27 -6 -40 0 -30 34 -33 50 -5 13 25 13 27 -6
45 -20 20 -30 20 -38 0z"/>
<path d="M2490 2695 c0 -16 -3 -40 -6 -52 -5 -17 -2 -23 10 -23 12 0 16 10 16
38 0 20 -5 44 -10 52 -7 12 -10 8 -10 -15z"/>
<path d="M1440 2663 c0 -10 -3 -28 -6 -40 -5 -19 -2 -23 16 -23 16 0 20 4 16
16 -3 9 -6 27 -6 40 0 13 -4 24 -10 24 -5 0 -10 -8 -10 -17z"/>
<path d="M3200 2664 c0 -12 -3 -36 -6 -53 -6 -27 -4 -31 14 -31 18 0 20 4 15
38 -7 47 -22 77 -23 46z"/>
<path d="M2506 2241 c-4 -7 -5 -15 -2 -18 9 -9 19 4 14 18 -4 11 -6 11 -12 0z"/>
<path d="M3570 3260 c0 -11 5 -20 10 -20 6 0 10 9 10 20 0 11 -4 20 -10 20 -5
0 -10 -9 -10 -20z"/>
<path d="M3570 3176 c0 -8 5 -18 10 -21 6 -3 10 3 10 14 0 12 -4 21 -10 21 -5
0 -10 -6 -10 -14z"/>
<path d="M2980 1430 c14 -11 29 -20 34 -20 4 0 6 -6 3 -13 -4 -10 2 -13 19 -9
30 6 32 32 2 32 -13 0 -32 7 -42 15 -11 8 -25 15 -30 15 -6 0 0 -9 14 -20z"/>
<path d="M3000 1341 c0 -5 5 -13 10 -16 6 -3 10 -2 10 4 0 5 -4 13 -10 16 -5
3 -10 2 -10 -4z"/>
<path d="M1566 1267 c22 -23 86 -100 143 -170 58 -70 107 -127 111 -127 3 0
18 29 32 65 14 36 24 65 22 65 -2 0 -16 -23 -30 -52 l-26 -52 -25 29 c-14 17
-37 44 -52 60 -15 17 -64 74 -110 128 -45 53 -87 97 -93 97 -6 0 7 -19 28 -43z"/>
<path d="M2190 1254 c-84 -13 -131 -28 -173 -58 -70 -50 -101 -100 -126 -199
-27 -109 -18 -164 42 -254 23 -35 45 -63 49 -63 3 0 13 -6 20 -14 56 -55 220
-83 307 -52 150 55 245 223 211 374 -7 31 -19 70 -27 86 -21 41 -102 125 -138
143 -28 15 -124 44 -135 42 -3 -1 -16 -3 -30 -5z m114 -53 c13 -11 16 -35 16
-138 0 -147 -8 -158 -71 -97 l-39 38 -39 -38 c-63 -61 -71 -50 -71 98 l0 125
28 16 c33 19 151 16 176 -4z m-297 -378 c-3 -10 -5 -2 -5 17 0 19 2 27 5 18 2
-10 2 -26 0 -35z m40 0 c-3 -10 -5 -2 -5 17 0 19 2 27 5 18 2 -10 2 -26 0 -35z
m140 0 c-3 -10 -5 -2 -5 17 0 19 2 27 5 18 2 -10 2 -26 0 -35z m50 5 c-3 -7
-5 -2 -5 12 0 14 2 19 5 13 2 -7 2 -19 0 -25z m77 16 c3 -8 2 -12 -4 -9 -6 3
-10 10 -10 16 0 14 7 11 14 -7z m-166 -25 c-3 -8 -7 -3 -11 10 -4 17 -3 21 5
13 5 -5 8 -16 6 -23z m289 -1 c-3 -8 -6 -5 -6 6 -1 11 2 17 5 13 3 -3 4 -12 1
-19z"/>
<path d="M3174 1225 c11 -8 25 -15 30 -15 6 0 2 7 -8 15 -11 8 -25 15 -30 15
-6 0 -2 -7 8 -15z"/>
<path d="M3157 1193 c-4 -3 -7 -11 -7 -17 0 -6 5 -5 12 2 6 6 9 14 7 17 -3 3
-9 2 -12 -2z"/>
<path d="M3144 1136 c-10 -27 2 -43 14 -19 8 14 9 24 2 28 -6 3 -13 -1 -16 -9z"/>
<path d="M1506 1115 c-3 -8 -1 -15 4 -15 13 0 22 18 11 24 -5 3 -11 -1 -15 -9z"/>
<path d="M1448 1039 c-2 -22 0 -43 4 -45 4 -3 8 2 8 11 0 9 4 14 9 11 13 -8 8
40 -6 52 -8 8 -12 0 -15 -29z"/>
<path d="M3190 1040 c0 -5 5 -10 11 -10 5 0 7 5 4 10 -3 6 -8 10 -11 10 -2 0
-4 -4 -4 -10z"/>
<path d="M1328 983 c-3 -12 -3 -25 1 -28 3 -4 6 -11 6 -17 0 -6 10 -14 23 -19
27 -10 28 -5 3 29 -10 15 -20 34 -23 42 -3 10 -6 8 -10 -7z"/>
<path d="M1515 990 c4 -6 11 -8 16 -5 14 9 11 15 -7 15 -8 0 -12 -5 -9 -10z"/>
<path d="M3180 989 c0 -5 5 -7 10 -4 6 3 10 8 10 11 0 2 -4 4 -10 4 -5 0 -10
-5 -10 -11z"/>
<path d="M3150 970 c0 -5 5 -10 11 -10 5 0 7 5 4 10 -3 6 -8 10 -11 10 -2 0
-4 -4 -4 -10z"/>
<path d="M1291 944 c0 -11 3 -14 6 -6 3 7 2 16 -1 19 -3 4 -6 -2 -5 -13z"/>
<path d="M1295 870 c-3 -5 -2 -10 4 -10 5 0 13 5 16 10 3 6 2 10 -4 10 -5 0
-13 -4 -16 -10z"/>
<path d="M1750 786 c0 -2 8 -10 18 -17 15 -13 16 -12 3 4 -13 16 -21 21 -21
13z"/>
<path d="M3060 770 c-12 -8 -9 -10 13 -10 19 0 30 -7 37 -22 6 -16 9 -18 9 -6
2 43 -24 60 -59 38z"/>
<path d="M2947 743 c5 -12 2 -15 -10 -10 -11 4 -26 -9 -53 -45 -41 -58 -45
-72 -32 -110 14 -39 31 -23 23 21 -5 31 -2 40 22 62 33 31 66 35 57 7 -6 -21
9 -24 23 -5 14 16 14 47 1 75 -13 26 -41 31 -31 5z"/>
<path d="M1337 733 c-4 -3 -7 -13 -7 -22 0 -12 3 -12 12 -3 7 7 21 12 33 12
16 0 17 2 5 10 -18 11 -34 13 -43 3z"/>
<path d="M1790 731 c0 -15 80 -81 98 -81 12 0 8 6 -13 19 -16 10 -42 30 -57
44 -16 14 -28 22 -28 18z"/>
<path d="M3004 660 c3 -30 6 -57 6 -59 0 -2 7 2 15 9 20 17 19 33 -6 72 l-21
33 6 -55z"/>
<path d="M1540 691 c0 -13 22 -27 51 -34 15 -4 37 -16 50 -28 l24 -21 -38 21
c-48 26 -65 27 -42 1 10 -11 27 -20 37 -20 10 0 23 -10 28 -22 5 -13 9 -21 9
-18 1 3 5 19 10 37 9 32 9 32 -56 62 -73 34 -73 35 -73 22z"/>
<path d="M1465 679 c-4 -6 -4 -13 -1 -16 3 -3 1 -13 -4 -22 -6 -13 -4 -17 11
-18 20 -2 26 21 8 32 -6 4 -8 13 -5 21 6 16 0 19 -9 3z"/>
<path d="M1918 643 c6 -2 18 -2 25 0 6 3 1 5 -13 5 -14 0 -19 -2 -12 -5z"/>
<path d="M3055 629 c-20 -21 -19 -29 6 -29 13 0 18 4 13 12 -5 8 -2 9 12 4 10
-4 15 -4 11 0 -4 4 1 13 11 20 15 12 14 13 -11 12 -15 -2 -34 -10 -42 -19z"/>
<path d="M2926 629 c-5 -12 -3 -38 4 -59 1 -3 6 8 11 25 9 30 -5 62 -15 34z"/>
<path d="M1420 605 c-11 -13 -11 -18 2 -31 14 -14 16 -14 20 4 8 30 -6 47 -22
27z"/>
<path d="M2970 595 c0 -14 5 -25 10 -25 6 0 10 11 10 25 0 14 -4 25 -10 25 -5
0 -10 -11 -10 -25z"/>
<path d="M1506 594 c-3 -9 -2 -23 4 -32 7 -14 9 -10 10 16 0 35 -5 41 -14 16z"/>
<path d="M1341 597 c2 -2 18 -11 36 -19 31 -15 31 -15 20 3 -6 10 -23 19 -36
19 -13 0 -22 -2 -20 -3z"/>
<path d="M1461 559 c4 -34 4 -34 -41 -36 -25 -1 -40 1 -33 3 9 4 10 10 1 24
-11 17 -13 17 -24 2 -10 -14 -14 -14 -28 -3 -9 7 -16 9 -16 4 0 -5 18 -19 39
-31 29 -16 48 -21 68 -16 26 7 27 6 13 -11 -14 -17 -13 -18 3 -12 10 4 21 7
23 7 3 0 3 4 -1 9 -3 5 -1 12 5 16 14 8 13 62 -1 71 -8 5 -10 -4 -8 -27z"/>
<path d="M2810 570 c0 -11 -5 -20 -11 -20 -6 0 -9 -6 -6 -12 2 -7 9 -12 15
-11 5 1 8 -7 5 -17 -6 -24 12 -27 21 -4 12 32 7 84 -9 84 -8 0 -15 -9 -15 -20z"/>
<path d="M1585 572 c-6 -4 -8 -20 -5 -37 l7 -30 7 27 c9 32 5 50 -9 40z"/>
<path d="M1610 529 c0 -16 4 -28 9 -25 8 5 3 56 -5 56 -2 0 -4 -14 -4 -31z"/>
<path d="M1551 520 c-1 -12 -11 -15 -38 -13 -21 1 -30 0 -20 -3 9 -3 15 -10
12 -15 -4 -5 2 -9 12 -9 15 0 16 -2 3 -10 -8 -5 -28 -10 -44 -10 -23 0 -27 -3
-19 -11 9 -9 22 -8 53 5 53 21 62 20 25 -4 l-29 -19 39 3 c22 2 42 5 45 6 3 1
11 3 19 4 8 0 16 7 19 15 3 8 0 11 -7 7 -21 -13 -51 5 -60 37 -5 18 -10 25
-10 17z"/>
<path d="M1700 501 c0 -5 5 -13 10 -16 6 -3 10 -2 10 4 0 5 -4 13 -10 16 -5 3
-10 2 -10 -4z"/>
<path d="M1724 455 c-5 -19 0 -32 20 -52 14 -14 26 -20 26 -14 0 7 5 9 10 6 6
-4 8 -10 5 -15 -5 -8 50 -32 58 -24 2 2 23 -3 47 -11 35 -12 45 -13 52 -3 17
27 2 34 -62 29 -20 -1 -22 1 -10 9 10 6 11 10 3 10 -7 0 -13 6 -13 14 0 7 -9
24 -19 38 -15 19 -27 24 -49 20 -16 -2 -33 1 -36 7 -12 18 -25 12 -32 -14z"/>
<path d="M2775 431 c-3 -5 -1 -12 5 -16 5 -3 10 1 10 9 0 18 -6 21 -15 7z"/>
<path d="M2677 412 c-26 -28 -22 -43 11 -36 36 9 42 13 41 27 0 7 -3 6 -6 -2
-4 -10 -9 -8 -17 8 -12 21 -13 21 -29 3z"/>
<path d="M2523 376 c-35 -17 -63 -35 -63 -40 0 -9 54 2 58 12 1 4 20 6 42 4
31 -3 40 -1 40 11 0 9 3 22 6 31 9 23 -11 19 -83 -18z"/>
<path d="M2630 380 c0 -5 5 -10 11 -10 5 0 7 5 4 10 -3 6 -8 10 -11 10 -2 0
-4 -4 -4 -10z"/>
<path d="M1964 338 c-3 -4 4 -8 15 -8 12 0 21 4 21 8 0 5 -7 9 -15 9 -9 0 -18
-4 -21 -9z"/>
<path d="M2010 341 c0 -9 23 -21 40 -21 4 0 10 6 13 13 3 8 -5 14 -24 15 -16
1 -29 -2 -29 -7z"/>
<path d="M2100 336 c0 -16 27 -29 41 -20 19 11 9 34 -16 34 -15 0 -25 -6 -25
-14z"/>
<path d="M2270 329 c0 -18 2 -19 15 -9 8 7 15 16 15 21 0 5 -7 9 -15 9 -9 0
-15 -9 -15 -21z"/>
<path d="M2316 341 c-4 -5 -2 -12 3 -15 5 -4 12 -2 15 3 4 5 2 12 -3 15 -5 4
-12 2 -15 -3z"/>
<path d="M2245 330 c-3 -5 -1 -10 4 -10 6 0 11 5 11 10 0 6 -2 10 -4 10 -3 0
-8 -4 -11 -10z"/>
<path d="M3390 380 c-9 -6 -10 -10 -3 -10 6 0 15 5 18 10 8 12 4 12 -15 0z"/>
</g>
</svg>
