<?xml version="1.0" encoding="UTF-8"?>
<svg xmlns="http://www.w3.org/2000/svg" xmlns:xlink="http://www.w3.org/1999/xlink" width="21px" height="21px" viewBox="0 0 21 21" version="1.1">
<g id="surface1">
<path style=" stroke:none;fill-rule:nonzero;fill:rgb(0%,0%,0%);fill-opacity:1;" d="M 2.769531 0.0351562 C 2.703125 0.0507812 2.644531 0.078125 2.648438 0.0976562 C 2.65625 0.152344 11.664062 9.539062 11.699219 9.53125 C 11.71875 9.523438 12.085938 9.148438 12.519531 8.699219 C 12.953125 8.242188 13.628906 7.539062 14.019531 7.132812 L 14.726562 6.398438 L 9.449219 3.359375 C 6.546875 1.683594 4.070312 0.265625 3.941406 0.203125 C 3.570312 0.0234375 3.125 -0.0390625 2.769531 0.0351562 Z M 2.769531 0.0351562 "/>
<path style=" stroke:none;fill-rule:nonzero;fill:rgb(0%,0%,0%);fill-opacity:1;" d="M 1.476562 0.902344 C 1.425781 0.976562 1.339844 1.15625 1.289062 1.300781 L 1.1875 1.578125 L 1.1875 10.484375 C 1.1875 16.832031 1.203125 19.4375 1.234375 19.554688 C 1.292969 19.761719 1.480469 20.152344 1.515625 20.140625 C 1.570312 20.117188 10.808594 10.476562 10.808594 10.441406 C 10.808594 10.421875 8.785156 8.304688 6.316406 5.734375 C 3.847656 3.164062 1.769531 0.996094 1.699219 0.917969 L 1.566406 0.773438 Z M 1.476562 0.902344 "/>
<path style=" stroke:none;fill-rule:nonzero;fill:rgb(0%,0%,0%);fill-opacity:1;" d="M 14.179688 8.742188 L 12.546875 10.441406 L 14.050781 12.007812 C 14.878906 12.871094 15.636719 13.65625 15.730469 13.753906 L 15.902344 13.933594 L 17.496094 13.019531 C 19.3125 11.972656 19.457031 11.863281 19.71875 11.316406 C 19.867188 11 19.871094 10.988281 19.871094 10.503906 C 19.871094 10.019531 19.867188 10.007812 19.71875 9.691406 C 19.453125 9.140625 19.320312 9.039062 17.46875 7.972656 C 16.574219 7.460938 15.839844 7.042969 15.828125 7.042969 C 15.820312 7.042969 15.078125 7.808594 14.179688 8.742188 Z M 14.179688 8.742188 "/>
<path style=" stroke:none;fill-rule:nonzero;fill:rgb(0%,0%,0%);fill-opacity:1;" d="M 7.085938 16.125 L 2.5 20.90625 L 2.699219 20.953125 C 2.976562 21.019531 3.300781 21.011719 3.609375 20.933594 C 3.824219 20.878906 4.949219 20.246094 9.269531 17.757812 C 12.234375 16.050781 14.691406 14.628906 14.730469 14.601562 C 14.785156 14.566406 14.5625 14.3125 13.261719 12.960938 C 12.417969 12.082031 11.714844 11.359375 11.699219 11.355469 C 11.679688 11.351562 9.605469 13.5 7.085938 16.125 Z M 7.085938 16.125 "/>
</g>
</svg>
